<svg xmlns="http://www.w3.org/2000/svg" viewBox="0 0 682 448" width="682" height="448" font-family="Segoe UI, Helvetica, sans-serif">
<rect width="682" height="448" fill="#f4f6f8"/>
<rect x="21" y="21" width="640" height="360" fill="#ffffff" stroke="#1f2933" stroke-opacity="0.25"/>
<polyline points="326.5,197.0 326.5,197.0 326.5,197.0 326.0,196.5 325.0,195.5 325.5,195.0 326.5,196.0 325.5,195.0 326.0,198.5 326.5,202.5 327.5,208.5 327.5,216.5 327.5,223.5 328.5,232.5 327.5,238.0 329.5,243.0 329.5,245.0 329.5,245.0 329.5,248.0 330.5,249.5 331.0,249.5 334.5,252.5 337.5,253.5 338.5,253.5 341.5,254.0 344.5,254.0 345.5,253.0 346.5,251.0 347.0,249.5 349.5,246.0 350.5,243.0 354.5,240.0 357.5,237.0 362.5,238.0 366.5,237.0 370.5,237.0 370.5,237.0 373.0,237.5 374.0,237.5 375.0,236.5 375.5,237.0 375.5,237.0 375.5,237.0 375.5,237.0 375.5,236.0 376.5,236.0 376.5,239.0 377.0,242.5 376.0,248.5 376.0,257.5 377.0,265.5 379.0,275.5 378.5,281.0 380.5,287.0 380.5,292.0 380.5,295.0 380.5,298.0 380.5,301.0 381.5,303.0 381.5,304.0 381.5,304.0 385.0,307.5 387.5,311.0 389.5,315.0 393.5,318.0 395.5,321.0 396.5,323.0 396.5,325.0 397.5,326.0 397.5,328.0 397.5,329.0 397.5,330.0 398.5,331.0 397.5,332.0 397.5,332.0 398.5,332.0 399.5,330.0 399.5,324.0 400.5,315.0 400.5,307.0 400.5,301.0 400.5,298.0 400.5,296.0 400.5,295.0 399.5,293.0 399.5,292.0 398.5,291.0 396.5,290.0 395.5,290.0 395.5,289.0 394.5,285.0 392.5,282.0 391.5,279.0 391.5,277.0 389.5,274.0 388.5,271.0 387.5,268.0 387.5,262.0 388.0,255.5 388.0,248.5 388.5,243.0 388.5,240.0 387.5,237.0 387.5,234.0 386.5,230.0 387.5,226.0 387.5,222.0 387.5,218.0 388.5,214.0 387.5,211.0 389.5,210.0 391.5,210.0 394.5,210.0 396.5,210.0 400.0,210.5 401.0,208.5 402.0,208.5 403.0,208.5 404.0,208.5 404.5,209.0 407.5,209.0 408.5,210.0 410.0,210.5 412.0,210.5 413.0,211.5 414.0,211.5 416.0,211.5 415.5,211.0 416.5,212.0 417.5,212.0 417.5,212.0 418.0,211.5 418.0,212.5 418.0,210.5 418.0,211.5 419.0,210.5 419.0,210.5 420.0,210.5 420.0,210.5 420.0,210.5 421.0,208.5 422.0,206.5 423.0,205.5 424.0,203.5 426.0,203.5 427.0,202.5 427.0,201.5 426.0,199.5 425.0,196.5 424.0,195.5 421.0,193.5 419.0,191.5 417.0,188.5 414.0,185.5 411.0,181.5 409.0,180.5 406.0,177.5 404.0,175.5 403.0,174.5 402.0,173.5 401.0,172.5 401.0,172.5 401.0,172.5 401.0,172.5 401.0,172.5 401.0,172.5 401.0,171.5 402.0,170.5 403.0,169.5 404.0,166.5 407.0,163.5 411.0,159.5 416.0,155.5 421.0,151.5 426.0,145.5 432.0,138.5 438.0,132.5 443.0,123.5 449.0,117.5 452.5,112.0 431.5,114.5 428.0,118.0 424.0,124.0 419.5,132.5 415.5,139.5 412.5,144.5 410.0,147.0 408.5,149.0 407.5,148.5 406.5,148.0 406.0,147.0 405.5,148.5 405.0,147.0 405.0,148.0 403.5,152.0 401.5,158.0 399.5,165.0 397.5,173.0 394.5,182.5 391.5,190.0 390.5,198.0 389.0,201.5 388.5,202.0 388.0,202.5 387.5,203.5 386.5,207.5 387.0,212.5 386.0,218.5 385.5,221.0 384.5,222.5 384.5,223.5 383.0,225.5 383.5,226.0 381.5,225.5 381.0,225.5 381.0,225.5 381.0,224.5 379.5,223.5 378.0,222.5 378.0,222.5 377.0,221.5 377.0,220.5 377.5,219.0 376.0,217.5 375.0,216.5 374.5,215.0 379.5,213.0 387.5,213.0 390.5,212.0" fill="none" stroke="#0b8f5a" stroke-width="3" stroke-linejoin="round" stroke-linecap="round" stroke-opacity="0.85"/>
<polyline points="98.5,76.0 111.5,75.0 125.5,73.5 138.5,70.0 151.5,69.0 167.5,66.5 185.5,64.0 202.5,62.5 223.5,62.5 245.5,63.0 268.5,62.5 283.5,62.0 306.5,59.5 306.5,59.5 306.5,59.5 306.5,59.5 306.5,59.5 306.5,59.5 306.5,59.5 306.5,59.5 306.5,59.5 306.5,59.5 306.5,59.5 306.5,59.5 306.5,59.5 442.5,220.5 444.5,215.5 446.5,209.5 448.5,204.5 449.5,198.5 452.5,192.5 454.5,189.5 455.5,185.5 459.0,182.5 461.0,178.5 463.0,175.5 465.5,172.5 467.5,169.5 468.5,164.5 467.5,161.5 465.5,159.5 462.5,158.5 459.5,158.5 457.0,157.5 450.0,160.5 448.0,165.0 446.5,167.5 439.5,169.0 439.5,171.0 438.5,170.0 441.5,169.0 446.0,167.5 450.0,165.5 455.0,165.5 462.0,165.0 466.5,167.5 473.0,173.0 478.5,180.0 485.0,185.5 491.0,188.5 496.5,190.5 502.5,190.5" fill="none" stroke="#0b8f5a" stroke-width="3" stroke-linejoin="round" stroke-linecap="round" stroke-opacity="0.85"/>
<rect x="312.0" y="183.0" width="29.0" height="28.0" fill="none" stroke="#0b8f5a" stroke-opacity="0.55" stroke-width="2"/>
<rect x="314.0" y="233.0" width="34.0" height="33.0" fill="none" stroke="#0b8f5a" stroke-opacity="0.55" stroke-width="2"/>
<rect x="359.0" y="221.0" width="33.0" height="32.0" fill="none" stroke="#0b8f5a" stroke-opacity="0.55" stroke-width="2"/>
<rect x="366.0" y="289.0" width="31.0" height="30.0" fill="none" stroke="#0b8f5a" stroke-opacity="0.55" stroke-width="2"/>
<rect x="385.0" y="286.0" width="31.0" height="30.0" fill="none" stroke="#0b8f5a" stroke-opacity="0.55" stroke-width="2"/>
<rect x="373.0" y="228.0" width="31.0" height="30.0" fill="none" stroke="#0b8f5a" stroke-opacity="0.55" stroke-width="2"/>
<rect x="392.0" y="194.0" width="31.0" height="30.0" fill="none" stroke="#0b8f5a" stroke-opacity="0.55" stroke-width="2"/>
<rect x="405.0" y="193.0" width="32.0" height="31.0" fill="none" stroke="#0b8f5a" stroke-opacity="0.55" stroke-width="2"/>
<rect x="385.0" y="157.0" width="32.0" height="31.0" fill="none" stroke="#0b8f5a" stroke-opacity="0.55" stroke-width="2"/>
<rect x="402.0" y="98.0" width="59.0" height="33.0" fill="none" stroke="#0b8f5a" stroke-opacity="0.55" stroke-width="2"/>
<rect x="360.0" y="182.0" width="61.0" height="32.0" fill="none" stroke="#0b8f5a" stroke-opacity="0.55" stroke-width="2"/>
<rect x="346.0" y="205.0" width="62.0" height="33.0" fill="none" stroke="#0b8f5a" stroke-opacity="0.55" stroke-width="2"/>
<rect x="231.0" y="35.0" width="105.0" height="54.0" fill="none" stroke="#0b8f5a" stroke-opacity="0.55" stroke-width="2"/>
<rect x="432.0" y="179.0" width="45.0" height="21.0" fill="none" stroke="#0b8f5a" stroke-opacity="0.55" stroke-width="2"/>
<rect x="421.0" y="156.0" width="50.0" height="23.0" fill="none" stroke="#0b8f5a" stroke-opacity="0.55" stroke-width="2"/>
<circle cx="326.5" cy="197.0" r="5" fill="#ffffff" stroke="#0b8f5a" stroke-width="3"/>
<text x="336.5" y="197.0" font-size="18" fill="#1f2933">start 300</text>
<circle cx="502.5" cy="190.5" r="5" fill="#0b8f5a" stroke="#0b8f5a" stroke-width="3"/>
<text x="512.5" y="190.5" font-size="18" fill="#1f2933">end 640</text>
<rect x="21" y="402" width="640" height="25" fill="#ffffff" stroke="#1f2933" stroke-opacity="0.25"/>
<rect x="21" y="403" width="640" height="23" fill="#c2410c" fill-opacity="0.9"/>
<rect x="21.00" y="403" width="0.71" height="23" fill="#0b8f5a"/>
<rect x="21.71" y="403" width="0.71" height="23" fill="#0b8f5a"/>
<rect x="22.42" y="403" width="0.71" height="23" fill="#0b8f5a"/>
<rect x="23.13" y="403" width="0.71" height="23" fill="#0b8f5a"/>
<rect x="23.84" y="403" width="0.71" height="23" fill="#0b8f5a"/>
<rect x="24.56" y="403" width="0.71" height="23" fill="#0b8f5a"/>
<rect x="25.27" y="403" width="0.71" height="23" fill="#0b8f5a"/>
<rect x="25.98" y="403" width="0.71" height="23" fill="#0b8f5a"/>
<rect x="26.69" y="403" width="0.71" height="23" fill="#0b8f5a"/>
<rect x="27.40" y="403" width="0.71" height="23" fill="#0b8f5a"/>
<rect x="28.11" y="403" width="0.71" height="23" fill="#0b8f5a"/>
<rect x="28.82" y="403" width="0.71" height="23" fill="#0b8f5a"/>
<rect x="29.53" y="403" width="0.71" height="23" fill="#0b8f5a"/>
<rect x="30.24" y="403" width="0.71" height="23" fill="#0b8f5a"/>
<rect x="30.96" y="403" width="0.71" height="23" fill="#0b8f5a"/>
<rect x="31.67" y="403" width="0.71" height="23" fill="#0b8f5a"/>
<rect x="32.38" y="403" width="0.71" height="23" fill="#0b8f5a"/>
<rect x="33.09" y="403" width="0.71" height="23" fill="#0b8f5a"/>
<rect x="33.80" y="403" width="0.71" height="23" fill="#0b8f5a"/>
<rect x="34.51" y="403" width="0.71" height="23" fill="#0b8f5a"/>
<rect x="35.22" y="403" width="0.71" height="23" fill="#0b8f5a"/>
<rect x="35.93" y="403" width="0.71" height="23" fill="#0b8f5a"/>
<rect x="36.64" y="403" width="0.71" height="23" fill="#0b8f5a"/>
<rect x="37.36" y="403" width="0.71" height="23" fill="#0b8f5a"/>
<rect x="38.07" y="403" width="0.71" height="23" fill="#0b8f5a"/>
<rect x="38.78" y="403" width="0.71" height="23" fill="#0b8f5a"/>
<rect x="39.49" y="403" width="0.71" height="23" fill="#0b8f5a"/>
<rect x="40.20" y="403" width="0.71" height="23" fill="#0b8f5a"/>
<rect x="40.91" y="403" width="0.71" height="23" fill="#0b8f5a"/>
<rect x="41.62" y="403" width="0.71" height="23" fill="#0b8f5a"/>
<rect x="42.33" y="403" width="0.71" height="23" fill="#0b8f5a"/>
<rect x="43.04" y="403" width="0.71" height="23" fill="#0b8f5a"/>
<rect x="43.76" y="403" width="0.71" height="23" fill="#0b8f5a"/>
<rect x="44.47" y="403" width="0.71" height="23" fill="#0b8f5a"/>
<rect x="45.18" y="403" width="0.71" height="23" fill="#0b8f5a"/>
<rect x="45.89" y="403" width="0.71" height="23" fill="#0b8f5a"/>
<rect x="46.60" y="403" width="0.71" height="23" fill="#0b8f5a"/>
<rect x="47.31" y="403" width="0.71" height="23" fill="#0b8f5a"/>
<rect x="48.02" y="403" width="0.71" height="23" fill="#0b8f5a"/>
<rect x="48.73" y="403" width="0.71" height="23" fill="#0b8f5a"/>
<rect x="49.44" y="403" width="0.71" height="23" fill="#0b8f5a"/>
<rect x="50.16" y="403" width="0.71" height="23" fill="#0b8f5a"/>
<rect x="50.87" y="403" width="0.71" height="23" fill="#0b8f5a"/>
<rect x="51.58" y="403" width="0.71" height="23" fill="#0b8f5a"/>
<rect x="52.29" y="403" width="0.71" height="23" fill="#0b8f5a"/>
<rect x="53.00" y="403" width="0.71" height="23" fill="#0b8f5a"/>
<rect x="53.71" y="403" width="0.71" height="23" fill="#0b8f5a"/>
<rect x="54.42" y="403" width="0.71" height="23" fill="#0b8f5a"/>
<rect x="55.13" y="403" width="0.71" height="23" fill="#0b8f5a"/>
<rect x="55.84" y="403" width="0.71" height="23" fill="#0b8f5a"/>
<rect x="56.56" y="403" width="0.71" height="23" fill="#0b8f5a"/>
<rect x="57.27" y="403" width="0.71" height="23" fill="#0b8f5a"/>
<rect x="57.98" y="403" width="0.71" height="23" fill="#0b8f5a"/>
<rect x="58.69" y="403" width="0.71" height="23" fill="#0b8f5a"/>
<rect x="59.40" y="403" width="0.71" height="23" fill="#0b8f5a"/>
<rect x="60.11" y="403" width="0.71" height="23" fill="#0b8f5a"/>
<rect x="60.82" y="403" width="0.71" height="23" fill="#0b8f5a"/>
<rect x="61.53" y="403" width="0.71" height="23" fill="#0b8f5a"/>
<rect x="62.24" y="403" width="0.71" height="23" fill="#0b8f5a"/>
<rect x="62.96" y="403" width="0.71" height="23" fill="#0b8f5a"/>
<rect x="63.67" y="403" width="0.71" height="23" fill="#0b8f5a"/>
<rect x="64.38" y="403" width="0.71" height="23" fill="#0b8f5a"/>
<rect x="65.09" y="403" width="0.71" height="23" fill="#0b8f5a"/>
<rect x="65.80" y="403" width="0.71" height="23" fill="#0b8f5a"/>
<rect x="66.51" y="403" width="0.71" height="23" fill="#0b8f5a"/>
<rect x="67.22" y="403" width="0.71" height="23" fill="#0b8f5a"/>
<rect x="67.93" y="403" width="0.71" height="23" fill="#0b8f5a"/>
<rect x="68.64" y="403" width="0.71" height="23" fill="#0b8f5a"/>
<rect x="69.36" y="403" width="0.71" height="23" fill="#0b8f5a"/>
<rect x="70.07" y="403" width="0.71" height="23" fill="#0b8f5a"/>
<rect x="70.78" y="403" width="0.71" height="23" fill="#0b8f5a"/>
<rect x="71.49" y="403" width="0.71" height="23" fill="#0b8f5a"/>
<rect x="72.20" y="403" width="0.71" height="23" fill="#0b8f5a"/>
<rect x="72.91" y="403" width="0.71" height="23" fill="#0b8f5a"/>
<rect x="73.62" y="403" width="0.71" height="23" fill="#0b8f5a"/>
<rect x="74.33" y="403" width="0.71" height="23" fill="#0b8f5a"/>
<rect x="75.04" y="403" width="0.71" height="23" fill="#0b8f5a"/>
<rect x="75.76" y="403" width="0.71" height="23" fill="#0b8f5a"/>
<rect x="76.47" y="403" width="0.71" height="23" fill="#0b8f5a"/>
<rect x="77.18" y="403" width="0.71" height="23" fill="#0b8f5a"/>
<rect x="77.89" y="403" width="0.71" height="23" fill="#0b8f5a"/>
<rect x="78.60" y="403" width="0.71" height="23" fill="#0b8f5a"/>
<rect x="79.31" y="403" width="0.71" height="23" fill="#0b8f5a"/>
<rect x="80.02" y="403" width="0.71" height="23" fill="#0b8f5a"/>
<rect x="80.73" y="403" width="0.71" height="23" fill="#0b8f5a"/>
<rect x="81.44" y="403" width="0.71" height="23" fill="#0b8f5a"/>
<rect x="82.16" y="403" width="0.71" height="23" fill="#0b8f5a"/>
<rect x="82.87" y="403" width="0.71" height="23" fill="#0b8f5a"/>
<rect x="83.58" y="403" width="0.71" height="23" fill="#0b8f5a"/>
<rect x="84.29" y="403" width="0.71" height="23" fill="#0b8f5a"/>
<rect x="85.00" y="403" width="0.71" height="23" fill="#0b8f5a"/>
<rect x="85.71" y="403" width="0.71" height="23" fill="#0b8f5a"/>
<rect x="86.42" y="403" width="0.71" height="23" fill="#0b8f5a"/>
<rect x="87.13" y="403" width="0.71" height="23" fill="#0b8f5a"/>
<rect x="87.84" y="403" width="0.71" height="23" fill="#0b8f5a"/>
<rect x="88.56" y="403" width="0.71" height="23" fill="#0b8f5a"/>
<rect x="89.27" y="403" width="0.71" height="23" fill="#0b8f5a"/>
<rect x="89.98" y="403" width="0.71" height="23" fill="#0b8f5a"/>
<rect x="90.69" y="403" width="0.71" height="23" fill="#0b8f5a"/>
<rect x="91.40" y="403" width="0.71" height="23" fill="#0b8f5a"/>
<rect x="92.11" y="403" width="0.71" height="23" fill="#0b8f5a"/>
<rect x="92.82" y="403" width="0.71" height="23" fill="#0b8f5a"/>
<rect x="93.53" y="403" width="0.71" height="23" fill="#0b8f5a"/>
<rect x="94.24" y="403" width="0.71" height="23" fill="#0b8f5a"/>
<rect x="94.96" y="403" width="0.71" height="23" fill="#0b8f5a"/>
<rect x="95.67" y="403" width="0.71" height="23" fill="#0b8f5a"/>
<rect x="96.38" y="403" width="0.71" height="23" fill="#0b8f5a"/>
<rect x="97.09" y="403" width="0.71" height="23" fill="#0b8f5a"/>
<rect x="97.80" y="403" width="0.71" height="23" fill="#0b8f5a"/>
<rect x="98.51" y="403" width="0.71" height="23" fill="#0b8f5a"/>
<rect x="99.22" y="403" width="0.71" height="23" fill="#0b8f5a"/>
<rect x="99.93" y="403" width="0.71" height="23" fill="#0b8f5a"/>
<rect x="100.64" y="403" width="0.71" height="23" fill="#0b8f5a"/>
<rect x="101.36" y="403" width="0.71" height="23" fill="#0b8f5a"/>
<rect x="102.07" y="403" width="0.71" height="23" fill="#0b8f5a"/>
<rect x="102.78" y="403" width="0.71" height="23" fill="#0b8f5a"/>
<rect x="103.49" y="403" width="0.71" height="23" fill="#0b8f5a"/>
<rect x="104.20" y="403" width="0.71" height="23" fill="#0b8f5a"/>
<rect x="104.91" y="403" width="0.71" height="23" fill="#0b8f5a"/>
<rect x="105.62" y="403" width="0.71" height="23" fill="#0b8f5a"/>
<rect x="106.33" y="403" width="0.71" height="23" fill="#0b8f5a"/>
<rect x="107.04" y="403" width="0.71" height="23" fill="#0b8f5a"/>
<rect x="107.76" y="403" width="0.71" height="23" fill="#0b8f5a"/>
<rect x="108.47" y="403" width="0.71" height="23" fill="#0b8f5a"/>
<rect x="109.18" y="403" width="0.71" height="23" fill="#0b8f5a"/>
<rect x="109.89" y="403" width="0.71" height="23" fill="#0b8f5a"/>
<rect x="110.60" y="403" width="0.71" height="23" fill="#0b8f5a"/>
<rect x="111.31" y="403" width="0.71" height="23" fill="#0b8f5a"/>
<rect x="112.02" y="403" width="0.71" height="23" fill="#0b8f5a"/>
<rect x="112.73" y="403" width="0.71" height="23" fill="#0b8f5a"/>
<rect x="113.44" y="403" width="0.71" height="23" fill="#0b8f5a"/>
<rect x="114.16" y="403" width="0.71" height="23" fill="#0b8f5a"/>
<rect x="114.87" y="403" width="0.71" height="23" fill="#0b8f5a"/>
<rect x="115.58" y="403" width="0.71" height="23" fill="#0b8f5a"/>
<rect x="116.29" y="403" width="0.71" height="23" fill="#0b8f5a"/>
<rect x="117.00" y="403" width="0.71" height="23" fill="#0b8f5a"/>
<rect x="117.71" y="403" width="0.71" height="23" fill="#0b8f5a"/>
<rect x="118.42" y="403" width="0.71" height="23" fill="#0b8f5a"/>
<rect x="119.13" y="403" width="0.71" height="23" fill="#0b8f5a"/>
<rect x="119.84" y="403" width="0.71" height="23" fill="#0b8f5a"/>
<rect x="120.56" y="403" width="0.71" height="23" fill="#0b8f5a"/>
<rect x="121.27" y="403" width="0.71" height="23" fill="#0b8f5a"/>
<rect x="121.98" y="403" width="0.71" height="23" fill="#0b8f5a"/>
<rect x="122.69" y="403" width="0.71" height="23" fill="#0b8f5a"/>
<rect x="123.40" y="403" width="0.71" height="23" fill="#0b8f5a"/>
<rect x="124.11" y="403" width="0.71" height="23" fill="#0b8f5a"/>
<rect x="124.82" y="403" width="0.71" height="23" fill="#0b8f5a"/>
<rect x="125.53" y="403" width="0.71" height="23" fill="#0b8f5a"/>
<rect x="126.24" y="403" width="0.71" height="23" fill="#0b8f5a"/>
<rect x="126.96" y="403" width="0.71" height="23" fill="#0b8f5a"/>
<rect x="127.67" y="403" width="0.71" height="23" fill="#0b8f5a"/>
<rect x="128.38" y="403" width="0.71" height="23" fill="#0b8f5a"/>
<rect x="129.09" y="403" width="0.71" height="23" fill="#0b8f5a"/>
<rect x="129.80" y="403" width="0.71" height="23" fill="#0b8f5a"/>
<rect x="130.51" y="403" width="0.71" height="23" fill="#0b8f5a"/>
<rect x="131.22" y="403" width="0.71" height="23" fill="#0b8f5a"/>
<rect x="131.93" y="403" width="0.71" height="23" fill="#0b8f5a"/>
<rect x="132.64" y="403" width="0.71" height="23" fill="#0b8f5a"/>
<rect x="133.36" y="403" width="0.71" height="23" fill="#0b8f5a"/>
<rect x="134.07" y="403" width="0.71" height="23" fill="#0b8f5a"/>
<rect x="134.78" y="403" width="0.71" height="23" fill="#0b8f5a"/>
<rect x="135.49" y="403" width="0.71" height="23" fill="#0b8f5a"/>
<rect x="136.20" y="403" width="0.71" height="23" fill="#0b8f5a"/>
<rect x="136.91" y="403" width="0.71" height="23" fill="#0b8f5a"/>
<rect x="137.62" y="403" width="0.71" height="23" fill="#0b8f5a"/>
<rect x="138.33" y="403" width="0.71" height="23" fill="#0b8f5a"/>
<rect x="139.04" y="403" width="0.71" height="23" fill="#0b8f5a"/>
<rect x="139.76" y="403" width="0.71" height="23" fill="#0b8f5a"/>
<rect x="140.47" y="403" width="0.71" height="23" fill="#0b8f5a"/>
<rect x="141.18" y="403" width="0.71" height="23" fill="#0b8f5a"/>
<rect x="141.89" y="403" width="0.71" height="23" fill="#0b8f5a"/>
<rect x="142.60" y="403" width="0.71" height="23" fill="#0b8f5a"/>
<rect x="143.31" y="403" width="0.71" height="23" fill="#0b8f5a"/>
<rect x="144.02" y="403" width="0.71" height="23" fill="#0b8f5a"/>
<rect x="144.73" y="403" width="0.71" height="23" fill="#0b8f5a"/>
<rect x="145.44" y="403" width="0.71" height="23" fill="#0b8f5a"/>
<rect x="146.16" y="403" width="0.71" height="23" fill="#0b8f5a"/>
<rect x="146.87" y="403" width="0.71" height="23" fill="#0b8f5a"/>
<rect x="147.58" y="403" width="0.71" height="23" fill="#0b8f5a"/>
<rect x="148.29" y="403" width="0.71" height="23" fill="#0b8f5a"/>
<rect x="149.00" y="403" width="0.71" height="23" fill="#0b8f5a"/>
<rect x="149.71" y="403" width="0.71" height="23" fill="#0b8f5a"/>
<rect x="150.42" y="403" width="0.71" height="23" fill="#0b8f5a"/>
<rect x="151.13" y="403" width="0.71" height="23" fill="#0b8f5a"/>
<rect x="151.84" y="403" width="0.71" height="23" fill="#0b8f5a"/>
<rect x="152.56" y="403" width="0.71" height="23" fill="#0b8f5a"/>
<rect x="153.27" y="403" width="0.71" height="23" fill="#0b8f5a"/>
<rect x="153.98" y="403" width="0.71" height="23" fill="#0b8f5a"/>
<rect x="154.69" y="403" width="0.71" height="23" fill="#0b8f5a"/>
<rect x="155.40" y="403" width="0.71" height="23" fill="#0b8f5a"/>
<rect x="156.11" y="403" width="0.71" height="23" fill="#0b8f5a"/>
<rect x="156.82" y="403" width="0.71" height="23" fill="#0b8f5a"/>
<rect x="157.53" y="403" width="0.71" height="23" fill="#0b8f5a"/>
<rect x="158.24" y="403" width="0.71" height="23" fill="#0b8f5a"/>
<rect x="158.96" y="403" width="0.71" height="23" fill="#0b8f5a"/>
<rect x="159.67" y="403" width="0.71" height="23" fill="#0b8f5a"/>
<rect x="160.38" y="403" width="0.71" height="23" fill="#0b8f5a"/>
<rect x="161.09" y="403" width="0.71" height="23" fill="#0b8f5a"/>
<rect x="161.80" y="403" width="0.71" height="23" fill="#0b8f5a"/>
<rect x="162.51" y="403" width="0.71" height="23" fill="#0b8f5a"/>
<rect x="163.22" y="403" width="0.71" height="23" fill="#0b8f5a"/>
<rect x="163.93" y="403" width="0.71" height="23" fill="#0b8f5a"/>
<rect x="164.64" y="403" width="0.71" height="23" fill="#0b8f5a"/>
<rect x="165.36" y="403" width="0.71" height="23" fill="#0b8f5a"/>
<rect x="166.07" y="403" width="0.71" height="23" fill="#0b8f5a"/>
<rect x="166.78" y="403" width="0.71" height="23" fill="#0b8f5a"/>
<rect x="167.49" y="403" width="0.71" height="23" fill="#0b8f5a"/>
<rect x="168.20" y="403" width="0.71" height="23" fill="#0b8f5a"/>
<rect x="168.91" y="403" width="0.71" height="23" fill="#0b8f5a"/>
<rect x="169.62" y="403" width="0.71" height="23" fill="#0b8f5a"/>
<rect x="170.33" y="403" width="0.71" height="23" fill="#0b8f5a"/>
<rect x="171.04" y="403" width="0.71" height="23" fill="#0b8f5a"/>
<rect x="171.76" y="403" width="0.71" height="23" fill="#0b8f5a"/>
<rect x="172.47" y="403" width="0.71" height="23" fill="#0b8f5a"/>
<rect x="173.18" y="403" width="0.71" height="23" fill="#0b8f5a"/>
<rect x="173.89" y="403" width="0.71" height="23" fill="#0b8f5a"/>
<rect x="174.60" y="403" width="0.71" height="23" fill="#0b8f5a"/>
<rect x="175.31" y="403" width="0.71" height="23" fill="#0b8f5a"/>
<rect x="176.02" y="403" width="0.71" height="23" fill="#0b8f5a"/>
<rect x="176.73" y="403" width="0.71" height="23" fill="#0b8f5a"/>
<rect x="177.44" y="403" width="0.71" height="23" fill="#0b8f5a"/>
<rect x="178.16" y="403" width="0.71" height="23" fill="#0b8f5a"/>
<rect x="178.87" y="403" width="0.71" height="23" fill="#0b8f5a"/>
<rect x="179.58" y="403" width="0.71" height="23" fill="#0b8f5a"/>
<rect x="180.29" y="403" width="0.71" height="23" fill="#0b8f5a"/>
<rect x="181.00" y="403" width="0.71" height="23" fill="#0b8f5a"/>
<rect x="181.71" y="403" width="0.71" height="23" fill="#0b8f5a"/>
<rect x="182.42" y="403" width="0.71" height="23" fill="#0b8f5a"/>
<rect x="183.13" y="403" width="0.71" height="23" fill="#0b8f5a"/>
<rect x="206.60" y="403" width="0.71" height="23" fill="#0b8f5a"/>
<rect x="207.31" y="403" width="0.71" height="23" fill="#0b8f5a"/>
<rect x="208.02" y="403" width="0.71" height="23" fill="#0b8f5a"/>
<rect x="208.73" y="403" width="0.71" height="23" fill="#0b8f5a"/>
<rect x="209.44" y="403" width="0.71" height="23" fill="#0b8f5a"/>
<rect x="210.16" y="403" width="0.71" height="23" fill="#0b8f5a"/>
<rect x="210.87" y="403" width="0.71" height="23" fill="#0b8f5a"/>
<rect x="211.58" y="403" width="0.71" height="23" fill="#0b8f5a"/>
<rect x="212.29" y="403" width="0.71" height="23" fill="#0b8f5a"/>
<rect x="213.00" y="403" width="0.71" height="23" fill="#0b8f5a"/>
<rect x="213.71" y="403" width="0.71" height="23" fill="#0b8f5a"/>
<rect x="214.42" y="403" width="0.71" height="23" fill="#0b8f5a"/>
<rect x="215.13" y="403" width="0.71" height="23" fill="#0b8f5a"/>
<rect x="215.84" y="403" width="0.71" height="23" fill="#0b8f5a"/>
<rect x="216.56" y="403" width="0.71" height="23" fill="#0b8f5a"/>
<rect x="217.27" y="403" width="0.71" height="23" fill="#0b8f5a"/>
<rect x="217.98" y="403" width="0.71" height="23" fill="#0b8f5a"/>
<rect x="218.69" y="403" width="0.71" height="23" fill="#0b8f5a"/>
<rect x="219.40" y="403" width="0.71" height="23" fill="#0b8f5a"/>
<rect x="220.11" y="403" width="0.71" height="23" fill="#0b8f5a"/>
<rect x="220.82" y="403" width="0.71" height="23" fill="#0b8f5a"/>
<rect x="221.53" y="403" width="0.71" height="23" fill="#0b8f5a"/>
<rect x="222.24" y="403" width="0.71" height="23" fill="#0b8f5a"/>
<rect x="222.96" y="403" width="0.71" height="23" fill="#0b8f5a"/>
<rect x="223.67" y="403" width="0.71" height="23" fill="#0b8f5a"/>
<rect x="237.18" y="403" width="0.71" height="23" fill="#0b8f5a"/>
<rect x="237.89" y="403" width="0.71" height="23" fill="#0b8f5a"/>
<rect x="238.60" y="403" width="0.71" height="23" fill="#0b8f5a"/>
<rect x="239.31" y="403" width="0.71" height="23" fill="#0b8f5a"/>
<rect x="240.02" y="403" width="0.71" height="23" fill="#0b8f5a"/>
<rect x="240.73" y="403" width="0.71" height="23" fill="#0b8f5a"/>
<rect x="241.44" y="403" width="0.71" height="23" fill="#0b8f5a"/>
<rect x="242.16" y="403" width="0.71" height="23" fill="#0b8f5a"/>
<rect x="242.87" y="403" width="0.71" height="23" fill="#0b8f5a"/>
<rect x="243.58" y="403" width="0.71" height="23" fill="#0b8f5a"/>
<rect x="244.29" y="403" width="0.71" height="23" fill="#0b8f5a"/>
<rect x="245.00" y="403" width="0.71" height="23" fill="#0b8f5a"/>
<rect x="245.71" y="403" width="0.71" height="23" fill="#0b8f5a"/>
<rect x="246.42" y="403" width="0.71" height="23" fill="#0b8f5a"/>
<rect x="247.13" y="403" width="0.71" height="23" fill="#0b8f5a"/>
<rect x="247.84" y="403" width="0.71" height="23" fill="#0b8f5a"/>
<rect x="248.56" y="403" width="0.71" height="23" fill="#0b8f5a"/>
<rect x="249.27" y="403" width="0.71" height="23" fill="#0b8f5a"/>
<rect x="249.98" y="403" width="0.71" height="23" fill="#0b8f5a"/>
<rect x="250.69" y="403" width="0.71" height="23" fill="#0b8f5a"/>
<rect x="251.40" y="403" width="0.71" height="23" fill="#0b8f5a"/>
<rect x="252.11" y="403" width="0.71" height="23" fill="#0b8f5a"/>
<rect x="252.82" y="403" width="0.71" height="23" fill="#0b8f5a"/>
<rect x="253.53" y="403" width="0.71" height="23" fill="#0b8f5a"/>
<rect x="254.24" y="403" width="0.71" height="23" fill="#0b8f5a"/>
<rect x="254.96" y="403" width="0.71" height="23" fill="#0b8f5a"/>
<rect x="255.67" y="403" width="0.71" height="23" fill="#0b8f5a"/>
<rect x="256.38" y="403" width="0.71" height="23" fill="#0b8f5a"/>
<rect x="257.09" y="403" width="0.71" height="23" fill="#0b8f5a"/>
<rect x="257.80" y="403" width="0.71" height="23" fill="#0b8f5a"/>
<rect x="258.51" y="403" width="0.71" height="23" fill="#0b8f5a"/>
<rect x="259.22" y="403" width="0.71" height="23" fill="#0b8f5a"/>
<rect x="259.93" y="403" width="0.71" height="23" fill="#0b8f5a"/>
<rect x="260.64" y="403" width="0.71" height="23" fill="#0b8f5a"/>
<rect x="261.36" y="403" width="0.71" height="23" fill="#0b8f5a"/>
<rect x="262.07" y="403" width="0.71" height="23" fill="#0b8f5a"/>
<rect x="262.78" y="403" width="0.71" height="23" fill="#0b8f5a"/>
<text x="21" y="16" font-size="21" font-weight="600" fill="#1f2933">car test - SUV in traffic, yolo26 + bytetrack</text>
<text x="21" y="446" font-size="16" fill="#1f2933" fill-opacity="0.75">frames 300-1199 &#183; 291 of 900 frames held &#183; green = on target, orange = searching</text>
</svg>